<svg width="201" height="201" viewBox="0 0 201 201" fill="none" xmlns="http://www.w3.org/2000/svg">
    <style>
        path { fill: #151739; }
        
        @media (prefers-color-scheme: dark) {
            path { fill: #ffffff; }
        }
    </style>
    <path class="outer-circle" d="M99.9926 201.083C44.5259 200.416 -0.00742275 154.949 0.659244 99.3494C1.19258 44.8161 45.3259 0.682755 99.9926 0.0160828V20.6828C55.9926 20.6828 20.2592 56.4161 20.2592 100.416C20.2592 144.416 55.9926 180.149 99.9926 180.149C143.993 180.149 179.726 144.416 179.726 100.416C179.726 90.8161 177.993 81.3494 174.659 72.4161L193.993 65.0828C213.593 117.083 187.326 175.083 135.326 194.683C123.993 198.949 112.126 201.083 99.9926 201.083Z"/>
    <!-- <path d="M67.9925 27.6161C27.5925 45.2161 9.19252 92.2828 27.0592 132.683L45.9925 124.283C42.7925 116.816 41.0592 108.683 41.0592 100.549C41.0592 68.0161 67.4592 41.4828 100.126 41.4828C132.659 41.4828 159.193 67.8828 159.193 100.549C159.193 110.149 156.926 119.483 152.393 128.016L170.659 137.749C181.993 116.283 182.793 90.8161 173.059 68.6828C160.002 38.7081 130.729 20.9175 99.9872 20.9201C89.2939 20.9215 78.4178 23.0748 67.9925 27.6161Z" fill="url(#paint0_linear_2_342)"/> -->
    <path d="M99.9926 160.283C67.0593 160.283 40.2593 133.483 40.2593 100.549C40.2593 67.6161 67.0593 40.8161 99.9926 40.8161C132.926 40.8161 159.726 67.6161 159.726 100.549H139.059C139.059 78.9494 121.593 61.4828 100.126 61.4828C78.5259 61.4828 61.0593 78.9494 61.0593 100.416C61.0593 122.016 78.5259 139.483 99.9926 139.483V160.283Z"/>
    <!-- <path d="M101.859 82.1495C102.259 82.1495 102.526 82.2828 102.793 82.2828C112.793 83.8828 119.593 93.2161 117.993 103.216C116.393 113.216 107.059 120.016 97.0593 118.416C87.0593 116.816 80.2593 107.483 81.8593 97.4828L61.4593 94.2828C58.2593 114.683 71.326 134.016 91.4593 138.549C94.3926 139.216 97.1926 139.483 100.126 139.483C119.859 139.483 136.526 124.549 138.659 104.683C140.926 83.3494 125.593 64.0161 104.126 61.6161L101.859 82.1495Z" fill="#87C654"/> -->
    <path d="M99.9927 82.5494C109.934 82.5494 117.993 90.6081 117.993 100.549C117.993 110.491 109.934 118.549 99.9927 118.549C90.0513 118.549 81.9927 110.491 81.9927 100.549C81.9927 90.6081 90.0513 82.5494 99.9927 82.5494Z"/>
    <defs>
        <linearGradient id="paint0_linear_2_342" x1="46.2346" y1="151.858" x2="155.143" y2="42.9499" gradientUnits="userSpaceOnUse">
            <stop stop-color="#F9E11E"/>
            <stop offset="1" stop-color="#FBA81B"/>
        </linearGradient>
    </defs>
</svg>
